<?xml version="1.0" encoding="UTF-8"?>
<svg id="SVGDoc" width="24" height="25" xmlns="http://www.w3.org/2000/svg" version="1.1" xmlns:xlink="http://www.w3.org/1999/xlink" xmlns:avocode="https://avocode.com/" viewBox="0 0 24 25"><defs></defs><desc>Generated with Avocode.</desc><g><g><title>Glasses</title><path d="M23.58912,24.6321c-0.2447,0.23699 -0.56708,0.36716 -0.90697,0.36716c-0.35903,0 -0.69403,-0.14305 -0.94311,-0.4034l-5.95948,-6.23512c-1.69224,1.19638 -3.67141,1.82629 -5.74834,1.82629c-5.53247,0 -10.03361,-4.52805 -10.03361,-10.09369c0,-5.56517 4.50113,-10.09321 10.03361,-10.09321c5.53239,0 10.03352,4.52805 10.03352,10.09321c0,2.38228 -0.83324,4.67062 -2.35399,6.4888l5.91459,6.18839c0.50039,0.52357 0.48383,1.35851 -0.03622,1.86157zM2.6151,10.09334c0,4.11415 3.32671,7.46059 7.41611,7.46059c4.08932,0 7.41603,-3.34644 7.41603,-7.46059c0,-4.11367 -3.32671,-7.46012 -7.41603,-7.46012c-4.0894,0 -7.41611,3.34644 -7.41611,7.46012z" fill="#c6c6c6" fill-opacity="1"></path></g></g></svg>