<?xml version="1.0" encoding="UTF-8"?>
<svg id="SVGDoc" width="40" height="34" xmlns="http://www.w3.org/2000/svg" version="1.1" xmlns:xlink="http://www.w3.org/1999/xlink" xmlns:avocode="https://avocode.com/" viewBox="0 0 40 34"><defs></defs><desc>Generated with Avocode.</desc><g><g><title>Shape</title><path d="M2.3179,4.77546h23.85707c1.28128,0 2.31923,-1.06621 2.31923,-2.38514c0,-1.31607 -1.03795,-2.38609 -2.31923,-2.38609h-23.85707c-1.28162,0 -2.31923,1.07002 -2.31923,2.38609c0,1.31941 1.03761,2.38514 2.31923,2.38514zM37.68177,14.61451h-35.36387c-1.28162,0 -2.31923,1.07098 -2.31923,2.38609c0,1.31989 1.03761,2.38562 2.31923,2.38562h35.36387c1.28137,0 2.31932,-1.06573 2.31932,-2.38562c0,-1.31512 -1.03795,-2.38609 -2.31932,-2.38609zM37.68177,29.22528h-35.36387c-1.28162,0 -2.31923,1.07098 -2.31923,2.38562c0,1.31989 1.03761,2.38657 2.31923,2.38657h35.36387c1.28137,0 2.31932,-1.06716 2.31932,-2.38657c0,-1.31464 -1.03795,-2.38562 -2.31932,-2.38562z" fill="#ffffff" fill-opacity="1"></path></g></g></svg>