<?xml version="1.0" encoding="UTF-8"?>
<svg id="SVGDoc" width="44" height="5" xmlns="http://www.w3.org/2000/svg" version="1.1" xmlns:xlink="http://www.w3.org/1999/xlink" xmlns:avocode="https://avocode.com/" viewBox="0 0 44 5"><defs></defs><desc>Generated with Avocode.</desc><g><g opacity="0.5"><title>Shape</title><path d="M41.49997,-0.00028c1.38067,0 2.49999,1.11914 2.49999,2.50006c0,1.38092 -1.11932,2.50006 -2.49999,2.50006c-1.38076,0 -2.49999,-1.11914 -2.49999,-2.50006c0,-1.38092 1.11923,-2.50006 2.49999,-2.50006zM32.00126,2.60945c0,1.31559 -1.03769,2.38609 -2.31932,2.38609h-15.85696c-1.28137,0 -2.31932,-1.0705 -2.31932,-2.38609c0,-1.31893 1.03795,-2.38562 2.31932,-2.38562h15.85696c1.28162,0 2.31932,1.06621 2.31932,2.38562zM2.49997,-0.00028c1.38067,0 2.49999,1.11914 2.49999,2.50006c0,1.38092 -1.11932,2.50006 -2.49999,2.50006c-1.38076,0 -2.49999,-1.11914 -2.49999,-2.50006c0,-1.38092 1.11923,-2.50006 2.49999,-2.50006z" fill="#ffffff" fill-opacity="1"></path></g></g></svg>